<svg width="22" height="16" viewBox="0 0 22 16" fill="none" xmlns="http://www.w3.org/2000/svg">
<path fill-rule="evenodd" clip-rule="evenodd" d="M19.7283 6.5H1.72534C0.896552 6.5 0.225342 7.17121 0.225342 8C0.225342 8.82879 0.896552 9.5 1.72534 9.5H19.7283C20.5571 9.5 21.2268 8.82879 21.2268 8C21.2268 7.17121 20.5571 6.5 19.7283 6.5ZM1.72633 3.5H19.7295C20.5583 3.5 21.228 2.82879 21.228 2C21.228 1.17121 20.5583 0.5 19.7295 0.5H1.72633C0.897537 0.5 0.226318 1.17121 0.226318 2C0.226318 2.82879 0.897537 3.5 1.72633 3.5ZM19.7283 12.5H1.72534C0.896552 12.5 0.225342 13.1712 0.225342 14C0.225342 14.8288 0.896552 15.5 1.72534 15.5H19.7283C20.5571 15.5 21.2268 14.8288 21.2268 14C21.2268 13.1712 20.5571 12.5 19.7283 12.5Z" fill="white"/>
</svg>
